<?xml version="1.0" standalone="no"?><!-- Generator: Gravit.io --><svg xmlns="http://www.w3.org/2000/svg" xmlns:xlink="http://www.w3.org/1999/xlink" style="isolation:isolate" viewBox="250.232 737.067 715.768 329.133" width="715.768" height="329.133"><g id="Group"><g id="logo_beyaz_tr"><g id="triode"><path d=" M 252.232 901.054 C 252.232 831.184 308.958 774.458 378.828 774.458 C 448.698 774.458 505.423 831.184 505.423 901.054 C 505.423 970.923 448.698 1027.649 378.828 1027.649 C 308.958 1027.649 252.232 970.923 252.232 901.054 Z " fill="none" vector-effect="non-scaling-stroke" stroke-width="4" stroke="rgb(0,0,0)" stroke-linejoin="miter" stroke-linecap="square" stroke-miterlimit="3"/><line x1="379.791" y1="739.066" x2="379.791" y2="806.403" vector-effect="non-scaling-stroke" stroke-width="4" stroke="rgb(0,0,0)" stroke-linejoin="miter" stroke-linecap="square" stroke-miterlimit="3"/><line x1="331.993" y1="806.293" x2="425.662" y2="806.293" vector-effect="non-scaling-stroke" stroke-width="4" stroke="rgb(0,0,0)" stroke-linejoin="miter" stroke-linecap="square" stroke-miterlimit="3"/><path d=" M 402.307 1060.199 L 402.307 1019.79 L 378.828 995.427 L 378.828 995.427 L 355.348 1019.79 L 355.348 1060.199" fill="none" vector-effect="non-scaling-stroke" stroke-width="4" stroke="rgb(0,0,0)" stroke-linejoin="miter" stroke-linecap="square" stroke-miterlimit="3"/></g><g id="DNA"><path d=" M 378.824 901.012 C 378.824 901.012 356.643 888.173 356.643 875.334 C 356.643 862.495 378.824 849.656 378.824 849.656 C 378.824 849.656 401.004 836.816 401.004 823.977" fill="none" vector-effect="non-scaling-stroke" stroke-width="4" stroke="rgb(0,0,0)" stroke-linejoin="miter" stroke-linecap="round" stroke-miterlimit="4"/><path d=" M 378.824 823.031 C 378.824 823.031 362.726 823.032 357.323 823.032 C 356.716 823.032 356.223 823.524 356.223 824.131 C 356.223 824.739 356.716 825.231 357.323 825.231 L 378.824 825.232" fill="rgb(0,0,0)"/><path d=" M 378.698 863.199 C 378.698 863.199 388.513 863.194 393.916 863.194 C 394.524 863.194 395.016 862.702 395.016 862.094 C 395.016 861.487 394.524 860.995 393.916 860.995 L 378.698 860.995" fill="rgb(0,0,0)"/><path d=" M 378.897 876.486 C 378.897 876.486 394.902 876.481 400.306 876.481 C 400.913 876.481 401.405 875.989 401.405 875.382 C 401.405 874.774 400.913 874.282 400.306 874.282 L 378.897 874.282" fill="rgb(0,0,0)"/><path d=" M 378.824 835.358 C 378.824 835.358 369.009 835.362 363.605 835.362 C 362.998 835.362 362.414 835.863 362.414 836.471 C 362.414 837.078 362.906 837.57 363.513 837.57 L 378.825 837.57" fill="rgb(0,0,0)"/><path d=" M 378.772 886.621 C 378.772 886.621 388.587 886.626 393.99 886.626 C 394.597 886.626 395.09 887.118 395.09 887.725 C 395.09 888.333 394.597 888.825 393.99 888.825 L 378.772 888.825" fill="rgb(0,0,0)"/><path d=" M 378.824 901.012 C 378.824 901.012 401.004 913.852 401.004 926.691 C 401.004 939.53 378.824 952.369 378.824 952.369 C 378.824 952.369 356.643 965.208 356.643 978.047" fill="none" vector-effect="non-scaling-stroke" stroke-width="4" stroke="rgb(0,0,0)" stroke-linejoin="miter" stroke-linecap="round" stroke-miterlimit="4"/><path d=" M 378.849 978.861 C 378.849 978.861 394.947 978.861 400.35 978.861 C 400.957 978.861 401.45 978.368 401.45 977.761 C 401.45 977.154 400.957 976.662 400.35 976.662 L 378.849 976.66" fill="rgb(0,0,0)"/><path d=" M 378.975 937.745 C 378.975 937.745 369.16 937.75 363.757 937.75 C 363.149 937.75 362.657 938.242 362.657 938.85 C 362.657 939.457 363.149 939.949 363.757 939.949 L 378.975 939.949" fill="rgb(0,0,0)"/><path d=" M 378.849 965.58 C 378.849 965.58 388.664 965.575 394.068 965.575 C 394.675 965.575 395.259 965.074 395.259 964.467 C 395.259 963.86 394.767 963.367 394.16 963.367 L 378.848 963.367" fill="rgb(0,0,0)"/><path d=" M 378.901 914.451 C 378.901 914.451 369.086 914.447 363.683 914.447 C 363.076 914.447 362.583 913.954 362.583 913.347 C 362.583 912.74 363.076 912.247 363.683 912.247 L 378.901 912.247" fill="rgb(0,0,0)"/><path d=" M 378.714 927.61 C 378.714 927.61 362.709 927.606 357.305 927.606 C 356.698 927.606 356.206 927.113 356.206 926.506 C 356.206 925.899 356.698 925.406 357.305 925.406 L 378.714 925.406" fill="rgb(0,0,0)"/></g><line x1="252.232" y1="899.633" x2="265.442" y2="899.633" vector-effect="non-scaling-stroke" stroke-width="4" stroke="rgb(0,0,0)" stroke-linejoin="miter" stroke-linecap="square" stroke-miterlimit="3"/><line x1="279.615" y1="899.633" x2="307.962" y2="899.633" vector-effect="non-scaling-stroke" stroke-width="4" stroke="rgb(0,0,0)" stroke-linejoin="miter" stroke-linecap="square" stroke-miterlimit="3"/><line x1="322.135" y1="899.633" x2="360.974" y2="899.633" vector-effect="non-scaling-stroke" stroke-width="4" stroke="rgb(0,0,0)" stroke-linejoin="miter" stroke-linecap="square" stroke-miterlimit="3"/><line x1="393.001" y1="899.633" x2="449.694" y2="899.633" vector-effect="non-scaling-stroke" stroke-width="4" stroke="rgb(0,0,0)" stroke-linejoin="miter" stroke-linecap="square" stroke-miterlimit="3"/><line x1="463.867" y1="899.633" x2="534.733" y2="899.633" vector-effect="non-scaling-stroke" stroke-width="4" stroke="rgb(0,0,0)" stroke-linejoin="miter" stroke-linecap="square" stroke-miterlimit="3"/></g><path d=" M 594.384 947.173 C 608.856 947.173 616.628 938.597 616.628 923.321 C 616.628 911.663 612.742 904.159 600.414 893.305 C 590.766 884.863 587.684 879.905 587.684 873.071 C 587.684 866.639 590.364 864.093 595.054 864.093 C 599.744 864.093 602.424 866.639 602.424 873.339 L 602.424 878.163 L 616.36 878.163 L 616.36 874.277 C 616.36 859.269 609.258 850.693 594.92 850.693 C 580.582 850.693 572.944 859.269 572.944 874.009 C 572.944 884.729 576.964 892.367 589.292 903.221 C 598.94 911.663 601.888 916.621 601.888 924.393 C 601.888 931.361 598.94 933.773 594.25 933.773 C 589.56 933.773 586.612 931.361 586.612 924.661 L 586.612 918.229 L 572.676 918.229 L 572.676 923.589 C 572.676 938.597 579.912 947.173 594.384 947.173 Z  M 625.07 945.833 L 639.81 945.833 L 639.81 903.623 L 655.622 903.623 L 655.622 945.833 L 670.362 945.833 L 670.362 852.033 L 655.622 852.033 L 655.622 890.223 L 639.81 890.223 L 639.81 852.033 L 625.07 852.033 L 625.07 945.833 Z  M 681.35 945.833 L 704.532 945.833 C 719.272 945.833 726.91 938.061 726.91 923.589 L 726.91 915.549 C 726.91 905.633 723.828 898.665 715.922 895.985 L 715.922 895.717 C 722.488 893.037 725.436 887.007 725.436 877.359 L 725.436 873.607 C 725.436 859.135 718.87 852.033 703.594 852.033 L 681.35 852.033 L 681.35 945.833 Z  M 696.09 890.223 L 696.09 865.433 L 703.192 865.433 C 708.418 865.433 710.696 868.381 710.696 875.081 L 710.696 880.307 C 710.696 887.811 707.346 890.223 701.852 890.223 L 696.09 890.223 Z  M 696.09 932.433 L 696.09 903.623 L 702.656 903.623 C 709.356 903.623 712.17 906.303 712.17 915.013 L 712.17 923.187 C 712.17 930.155 709.49 932.433 704.532 932.433 L 696.09 932.433 Z  M 736.156 845.735 L 749.556 845.735 L 749.556 832.067 L 736.156 832.067 L 736.156 845.735 Z  M 735.486 945.833 L 750.226 945.833 L 750.226 852.033 L 735.486 852.033 L 735.486 945.833 Z  M 772.738 945.833 L 787.478 945.833 L 787.478 865.433 L 802.888 865.433 L 802.888 852.033 L 757.328 852.033 L 757.328 865.433 L 772.738 865.433 L 772.738 945.833 Z  M 821.514 945.833 L 836.254 945.833 L 836.254 865.433 L 851.664 865.433 L 851.664 852.033 L 806.104 852.033 L 806.104 865.433 L 821.514 865.433 L 821.514 945.833 Z " fill-rule="evenodd" fill="rgb(0,0,0)"/></g></svg>