<?xml version="1.0" encoding="UTF-8" standalone="no"?>
<svg
   xmlns:dc="http://purl.org/dc/elements/1.1/"
   xmlns:cc="http://creativecommons.org/ns#"
   xmlns:rdf="http://www.w3.org/1999/02/22-rdf-syntax-ns#"
   xmlns:svg="http://www.w3.org/2000/svg"
   xmlns="http://www.w3.org/2000/svg"
   xmlns:sodipodi="http://sodipodi.sourceforge.net/DTD/sodipodi-0.dtd"
   xmlns:inkscape="http://www.inkscape.org/namespaces/inkscape"
   sodipodi:docname="background.svg"
   inkscape:version="1.0 (4035a4fb49, 2020-05-01)"
   id="svg8"
   version="1.1"
   viewBox="0 0 1015.9999 571.50001"
   height="2160"
   width="3840">
  <defs
     id="defs2" />
  <sodipodi:namedview
     inkscape:window-maximized="1"
     inkscape:window-y="-8"
     inkscape:window-x="-8"
     inkscape:window-height="1027"
     inkscape:window-width="1920"
     inkscape:snap-bbox="true"
     width="3840px"
     units="px"
     showgrid="false"
     inkscape:document-rotation="0"
     inkscape:current-layer="layer1"
     inkscape:document-units="px"
     inkscape:cy="290.47266"
     inkscape:cx="2891.1441"
     inkscape:zoom="0.175"
     inkscape:pageshadow="2"
     inkscape:pageopacity="0.0"
     borderopacity="1.0"
     bordercolor="#666666"
     pagecolor="#ffffff"
     id="base" />
  <metadata
     id="metadata5">
    <rdf:RDF>
      <cc:Work
         rdf:about="">
        <dc:format>image/svg+xml</dc:format>
        <dc:type
           rdf:resource="http://purl.org/dc/dcmitype/StillImage" />
        <dc:title></dc:title>
      </cc:Work>
    </rdf:RDF>
  </metadata>
  <g
     id="layer1"
     inkscape:groupmode="layer"
     inkscape:label="Layer 1">
    <path
       transform="scale(0.26458332)"
       d="M 3312.9492 -618.21289 A 998.03074 998.03074 0 0 0 2315.2695 379.81641 A 998.03074 998.03074 0 0 0 3313.3008 1377.8477 A 998.03074 998.03074 0 0 0 4311.332 379.81641 A 998.03074 998.03074 0 0 0 3313.3008 -618.21289 A 998.03074 998.03074 0 0 0 3312.9492 -618.21289 z M 3313.1973 -430.26367 A 808.12202 808.12202 0 0 1 3313.2598 -430.26367 A 808.12202 808.12202 0 0 1 4121.3828 377.85742 A 808.12202 808.12202 0 0 1 3313.2598 1185.9805 A 808.12202 808.12202 0 0 1 2505.1387 377.85742 A 808.12202 808.12202 0 0 1 3313.1973 -430.26367 z "
       style="opacity:0.997;fill:#e61400;stroke-width:5.00032;stroke-miterlimit:3;stroke-dashoffset:10.0157;paint-order:markers fill stroke"
       id="path835" />
  </g>
</svg>
